<?xml version="1.0" standalone="no"?>
<!DOCTYPE svg PUBLIC "-//W3C//DTD SVG 20010904//EN"
 "http://www.w3.org/TR/2001/REC-SVG-20010904/DTD/svg10.dtd">
<svg version="1.0" xmlns="http://www.w3.org/2000/svg"
 width="368.000000pt" height="260.000000pt" viewBox="0 0 368.000000 260.000000"
 preserveAspectRatio="xMidYMid meet">

<g transform="translate(0.000000,260.000000) scale(0.100000,-0.100000)"
fill="#000000" stroke="none">
<path d="M0 1300 l0 -1300 1840 0 1840 0 0 1300 0 1300 -1840 0 -1840 0 0
-1300z m2370 1139 c-59 -10 -384 -10 -435 0 -25 6 58 9 220 9 161 0 243 -4
215 -9z m-228 -879 c-3 -26 -9 -40 -18 -40 -8 0 -14 5 -14 10 0 6 5 10 10 10
6 0 10 14 10 30 0 17 3 30 8 30 4 0 6 -18 4 -40z m109 22 c-5 -10 -17 -24 -25
-32 -14 -11 -16 -9 -16 8 0 12 8 26 18 31 26 16 34 13 23 -7z m39 -66 c0 -16
-18 -31 -27 -22 -8 8 5 36 17 36 5 0 10 -6 10 -14z m-40 -40 c0 -18 -27 -29
-36 -14 -4 5 0 14 7 19 20 13 29 11 29 -5z m-190 -40 c0 -18 -2 -17 -15 8 -19
36 -19 42 0 26 8 -7 15 -22 15 -34z m334 18 c9 -8 16 -23 16 -32 -1 -15 -2
-15 -11 1 -5 9 -17 17 -26 17 -13 0 -15 -9 -10 -60 6 -52 4 -63 -13 -80 -23
-23 -50 -17 -50 11 0 12 9 21 25 25 23 6 25 10 25 70 0 68 12 81 44 48z m-388
-32 c-20 -38 -42 -56 -62 -48 -27 10 -12 41 18 38 19 -2 30 4 38 18 6 11 13
20 16 20 2 0 -2 -13 -10 -28z m164 -35 c11 -21 10 -21 -4 -3 -15 19 -16 19
-36 1 -25 -22 -27 -12 -2 13 20 22 28 19 42 -11z m490 29 c0 -2 -8 -10 -17
-17 -16 -13 -17 -12 -4 4 13 16 21 21 21 13z m-89 -85 c-25 -32 -28 -40 -16
-43 13 -2 9 -10 -15 -35 -17 -18 -37 -30 -44 -27 -24 9 -129 -167 -171 -286
-8 -23 -11 -40 -7 -38 4 2 32 16 62 32 77 41 185 47 290 16 90 -27 203 -77
262 -118 24 -16 53 -32 66 -36 12 -4 22 -13 21 -19 -1 -7 10 -38 25 -69 19
-41 26 -70 24 -100 l-3 -43 -195 -2 c-146 -2 -190 0 -176 8 12 8 80 11 192 10
l174 -2 0 30 c0 51 -30 111 -70 140 -20 14 -35 31 -33 37 9 27 -171 119 -303
155 -111 30 -193 23 -285 -24 -38 -19 -69 -31 -69 -26 0 37 78 203 138 293 40
60 44 86 14 86 -11 0 -4 10 18 29 26 22 38 26 48 18 10 -8 21 -3 45 21 42 43
45 40 8 -7z m-381 4 c0 -8 -7 -15 -15 -15 -8 0 -15 7 -15 15 0 8 7 15 15 15 8
0 15 -7 15 -15z m-30 -40 c0 -19 -20 -29 -32 -17 -8 8 -7 16 2 26 14 17 30 12
30 -9z m-116 -83 c-6 -4 -14 -14 -17 -22 -4 -10 -6 -8 -6 8 -1 15 5 22 17 22
10 0 13 -3 6 -8z m216 -71 c0 -6 -5 -11 -11 -11 -6 0 -9 6 -6 14 3 8 -3 22
-14 32 -10 9 -19 21 -19 26 0 5 11 -4 25 -20 14 -17 25 -35 25 -41z m-170 38
c0 -5 -4 -9 -10 -9 -5 0 -10 7 -10 16 0 8 5 12 10 9 6 -3 10 -10 10 -16z m0
-45 c0 -8 -7 -14 -15 -14 -8 0 -15 9 -15 20 0 13 5 18 15 14 8 -4 15 -12 15
-20z m-1918 -386 c-4 -18 -6 -19 -14 -4 -12 22 -1 57 11 37 5 -7 6 -22 3 -33z
m2175 -395 c-1 -43 -3 -10 -3 72 0 83 2 118 3 78 2 -40 2 -107 0 -150z m-22
-78 c6 -2 -25 -4 -67 -4 l-77 -1 -3 -67 -3 -68 -5 76 -5 76 75 -4 c41 -3 80
-6 85 -8z"/>
</g>
</svg>
